<mxfile host="app.diagrams.net" modified="2023-11-02T06:56:20.656Z" agent="Mozilla/5.0 (Windows NT 10.0; Win64; x64; rv:109.0) Gecko/20100101 Firefox/119.0" version="22.0.8" etag="MWnSlnaJWxWrkiBJL4WH" type="github">
  <diagram name="Seite-1" id="38R661T35csppS7B6QI9">
    <mxGraphModel>
      <root>
        <mxCell id="0" />
        <mxCell id="1" parent="0" />
      </root>
    </mxGraphModel>
  </diagram>
</mxfile>
